<mxfile host="app.diagrams.net" agent="Mozilla/5.0 (Macintosh; Intel Mac OS X 10_15_7) AppleWebKit/537.36 (KHTML, like Gecko) Chrome/134.0.0.0 Safari/537.36" version="26.2.5">
  <diagram name="Page-1" id="74e2e168-ea6b-b213-b513-2b3c1d86103e">
    <mxGraphModel dx="1334" dy="764" grid="1" gridSize="10" guides="1" tooltips="1" connect="1" arrows="1" fold="1" page="1" pageScale="1" pageWidth="1100" pageHeight="850" background="none" math="0" shadow="0">
      <root>
        <mxCell id="0" />
        <mxCell id="1" parent="0" />
        <mxCell id="77e6c97f196da883-1" value="&lt;font style=&quot;vertical-align: inherit;&quot;&gt;&lt;font style=&quot;vertical-align: inherit;&quot;&gt;&lt;font style=&quot;vertical-align: inherit;&quot;&gt;&lt;font style=&quot;vertical-align: inherit; font-size: 15px;&quot;&gt;小思3.0&lt;/font&gt;&lt;/font&gt;&lt;/font&gt;&lt;/font&gt;" style="swimlane;html=1;childLayout=stackLayout;startSize=20;rounded=0;shadow=0;labelBackgroundColor=none;strokeWidth=1;fontFamily=Verdana;fontSize=8;align=center;fillColor=#dae8fc;strokeColor=#6c8ebf;" parent="1" vertex="1">
          <mxGeometry x="490" y="110" width="970" height="790" as="geometry" />
        </mxCell>
        <mxCell id="77e6c97f196da883-2" value="用户" style="swimlane;html=1;startSize=20;fillColor=#fff2cc;strokeColor=#d6b656;" parent="77e6c97f196da883-1" vertex="1">
          <mxGeometry y="20" width="160" height="770" as="geometry" />
        </mxCell>
        <mxCell id="77e6c97f196da883-8" value="&lt;h5&gt;&lt;font style=&quot;font-size: 12px;&quot;&gt;唤醒小思&lt;/font&gt;&lt;/h5&gt;" style="rounded=1;whiteSpace=wrap;html=1;shadow=0;labelBackgroundColor=none;strokeWidth=1;fontFamily=Verdana;fontSize=8;align=center;fillColor=#f8cecc;strokeColor=#b85450;" parent="77e6c97f196da883-2" vertex="1">
          <mxGeometry x="30" y="330" width="100" height="60" as="geometry" />
        </mxCell>
        <mxCell id="77e6c97f196da883-3" value="&lt;font style=&quot;vertical-align: inherit;&quot;&gt;&lt;font style=&quot;vertical-align: inherit;&quot;&gt;客户端&lt;/font&gt;&lt;/font&gt;" style="swimlane;html=1;startSize=20;fillColor=#fff2cc;strokeColor=#d6b656;" parent="77e6c97f196da883-1" vertex="1">
          <mxGeometry x="160" y="20" width="270" height="770" as="geometry" />
        </mxCell>
        <mxCell id="77e6c97f196da883-11" value="&lt;font style=&quot;font-size: 12px;&quot;&gt;&lt;b&gt;音频流&lt;/b&gt;&lt;/font&gt;" style="rounded=1;whiteSpace=wrap;html=1;shadow=0;labelBackgroundColor=none;strokeWidth=1;fontFamily=Verdana;fontSize=8;align=center;fillColor=#dae8fc;strokeColor=#6c8ebf;" parent="77e6c97f196da883-3" vertex="1">
          <mxGeometry x="80" y="90" width="100" height="60" as="geometry" />
        </mxCell>
        <mxCell id="G_6xMhnmnGoEigzbTef8-24" style="edgeStyle=orthogonalEdgeStyle;rounded=0;orthogonalLoop=1;jettySize=auto;html=1;entryX=0;entryY=0.5;entryDx=0;entryDy=0;" parent="77e6c97f196da883-3" source="G_6xMhnmnGoEigzbTef8-14" target="G_6xMhnmnGoEigzbTef8-19" edge="1">
          <mxGeometry relative="1" as="geometry" />
        </mxCell>
        <mxCell id="G_6xMhnmnGoEigzbTef8-25" style="edgeStyle=orthogonalEdgeStyle;rounded=0;orthogonalLoop=1;jettySize=auto;html=1;entryX=0.5;entryY=0;entryDx=0;entryDy=0;" parent="77e6c97f196da883-3" source="G_6xMhnmnGoEigzbTef8-14" target="G_6xMhnmnGoEigzbTef8-17" edge="1">
          <mxGeometry relative="1" as="geometry" />
        </mxCell>
        <mxCell id="G_6xMhnmnGoEigzbTef8-14" value="&lt;h5&gt;&lt;span style=&quot;font-size: 12px;&quot;&gt;屏上圈选&lt;/span&gt;&lt;/h5&gt;" style="rounded=1;whiteSpace=wrap;html=1;shadow=0;labelBackgroundColor=none;strokeWidth=1;fontFamily=Verdana;fontSize=8;align=center;fillColor=#dae8fc;strokeColor=#6c8ebf;" parent="77e6c97f196da883-3" vertex="1">
          <mxGeometry x="10" y="300" width="100" height="60" as="geometry" />
        </mxCell>
        <mxCell id="G_6xMhnmnGoEigzbTef8-67" style="edgeStyle=orthogonalEdgeStyle;rounded=0;orthogonalLoop=1;jettySize=auto;html=1;" parent="77e6c97f196da883-3" source="G_6xMhnmnGoEigzbTef8-15" target="G_6xMhnmnGoEigzbTef8-58" edge="1">
          <mxGeometry relative="1" as="geometry" />
        </mxCell>
        <mxCell id="G_6xMhnmnGoEigzbTef8-15" value="&lt;h5&gt;&lt;span style=&quot;font-size: 12px;&quot;&gt;屏下采集&lt;/span&gt;&lt;/h5&gt;" style="rounded=1;whiteSpace=wrap;html=1;shadow=0;labelBackgroundColor=none;strokeWidth=1;fontFamily=Verdana;fontSize=8;align=center;fillColor=#dae8fc;strokeColor=#6c8ebf;" parent="77e6c97f196da883-3" vertex="1">
          <mxGeometry x="15" y="650" width="100" height="60" as="geometry" />
        </mxCell>
        <mxCell id="G_6xMhnmnGoEigzbTef8-17" value="&lt;h5&gt;&lt;span style=&quot;font-size: 12px;&quot;&gt;文本&lt;/span&gt;&lt;/h5&gt;" style="rhombus;whiteSpace=wrap;html=1;rounded=0;shadow=0;labelBackgroundColor=none;strokeWidth=1;fontFamily=Verdana;fontSize=8;align=center;fillColor=#dae8fc;strokeColor=#6c8ebf;" parent="77e6c97f196da883-3" vertex="1">
          <mxGeometry x="15" y="437.5" width="90" height="55" as="geometry" />
        </mxCell>
        <mxCell id="G_6xMhnmnGoEigzbTef8-19" value="&lt;h5&gt;&lt;span style=&quot;font-size: 12px;&quot;&gt;上传OSS&lt;/span&gt;&lt;/h5&gt;" style="rounded=1;whiteSpace=wrap;html=1;shadow=0;labelBackgroundColor=none;strokeWidth=1;fontFamily=Verdana;fontSize=8;align=center;fillColor=#dae8fc;strokeColor=#6c8ebf;" parent="77e6c97f196da883-3" vertex="1">
          <mxGeometry x="155" y="300" width="100" height="60" as="geometry" />
        </mxCell>
        <mxCell id="G_6xMhnmnGoEigzbTef8-28" value="否" style="text;html=1;align=center;verticalAlign=middle;resizable=0;points=[];autosize=1;strokeColor=none;fillColor=none;" parent="77e6c97f196da883-3" vertex="1">
          <mxGeometry x="30" y="510" width="40" height="30" as="geometry" />
        </mxCell>
        <mxCell id="G_6xMhnmnGoEigzbTef8-58" value="&lt;h5&gt;&lt;span style=&quot;font-size: 12px;&quot;&gt;上传OSS&lt;/span&gt;&lt;/h5&gt;" style="rounded=1;whiteSpace=wrap;html=1;shadow=0;labelBackgroundColor=none;strokeWidth=1;fontFamily=Verdana;fontSize=8;align=center;fillColor=#dae8fc;strokeColor=#6c8ebf;" parent="77e6c97f196da883-3" vertex="1">
          <mxGeometry x="150" y="650" width="100" height="60" as="geometry" />
        </mxCell>
        <mxCell id="G_6xMhnmnGoEigzbTef8-26" style="edgeStyle=orthogonalEdgeStyle;rounded=0;orthogonalLoop=1;jettySize=auto;html=1;entryX=0;entryY=0.5;entryDx=0;entryDy=0;" parent="77e6c97f196da883-1" source="G_6xMhnmnGoEigzbTef8-17" target="G_6xMhnmnGoEigzbTef8-33" edge="1">
          <mxGeometry relative="1" as="geometry">
            <mxPoint x="380" y="480" as="targetPoint" />
          </mxGeometry>
        </mxCell>
        <mxCell id="G_6xMhnmnGoEigzbTef8-60" style="edgeStyle=orthogonalEdgeStyle;rounded=0;orthogonalLoop=1;jettySize=auto;html=1;entryX=0;entryY=0.5;entryDx=0;entryDy=0;" parent="77e6c97f196da883-1" source="G_6xMhnmnGoEigzbTef8-17" target="G_6xMhnmnGoEigzbTef8-57" edge="1">
          <mxGeometry relative="1" as="geometry">
            <Array as="points">
              <mxPoint x="220" y="555" />
            </Array>
          </mxGeometry>
        </mxCell>
        <mxCell id="G_6xMhnmnGoEigzbTef8-64" style="edgeStyle=orthogonalEdgeStyle;rounded=0;orthogonalLoop=1;jettySize=auto;html=1;entryX=0;entryY=0.5;entryDx=0;entryDy=0;" parent="77e6c97f196da883-1" source="77e6c97f196da883-11" target="G_6xMhnmnGoEigzbTef8-21" edge="1">
          <mxGeometry relative="1" as="geometry" />
        </mxCell>
        <mxCell id="G_6xMhnmnGoEigzbTef8-65" style="edgeStyle=orthogonalEdgeStyle;rounded=0;orthogonalLoop=1;jettySize=auto;html=1;" parent="77e6c97f196da883-1" source="G_6xMhnmnGoEigzbTef8-19" target="G_6xMhnmnGoEigzbTef8-30" edge="1">
          <mxGeometry relative="1" as="geometry" />
        </mxCell>
        <mxCell id="G_6xMhnmnGoEigzbTef8-69" style="edgeStyle=orthogonalEdgeStyle;rounded=0;orthogonalLoop=1;jettySize=auto;html=1;entryX=0;entryY=0.5;entryDx=0;entryDy=0;" parent="77e6c97f196da883-1" source="G_6xMhnmnGoEigzbTef8-58" target="G_6xMhnmnGoEigzbTef8-68" edge="1">
          <mxGeometry relative="1" as="geometry" />
        </mxCell>
        <mxCell id="77e6c97f196da883-4" value="&lt;font style=&quot;vertical-align: inherit;&quot;&gt;&lt;font style=&quot;vertical-align: inherit;&quot;&gt;服务端&lt;/font&gt;&lt;/font&gt;" style="swimlane;html=1;startSize=20;fillColor=#fff2cc;strokeColor=#d6b656;" parent="77e6c97f196da883-1" vertex="1">
          <mxGeometry x="430" y="20" width="220" height="770" as="geometry" />
        </mxCell>
        <mxCell id="G_6xMhnmnGoEigzbTef8-63" style="edgeStyle=orthogonalEdgeStyle;rounded=0;orthogonalLoop=1;jettySize=auto;html=1;entryX=0;entryY=0.5;entryDx=0;entryDy=0;" parent="77e6c97f196da883-4" source="G_6xMhnmnGoEigzbTef8-21" target="G_6xMhnmnGoEigzbTef8-22" edge="1">
          <mxGeometry relative="1" as="geometry" />
        </mxCell>
        <mxCell id="G_6xMhnmnGoEigzbTef8-21" value="&lt;span style=&quot;font-size: 12px;&quot;&gt;&lt;b&gt;WS/ASR&lt;/b&gt;&lt;/span&gt;" style="rounded=1;whiteSpace=wrap;html=1;shadow=0;labelBackgroundColor=none;strokeWidth=1;fontFamily=Verdana;fontSize=8;align=center;fillColor=#ffe6cc;strokeColor=#d79b00;" parent="77e6c97f196da883-4" vertex="1">
          <mxGeometry x="20" y="95" width="80" height="50" as="geometry" />
        </mxCell>
        <mxCell id="G_6xMhnmnGoEigzbTef8-22" value="&lt;span style=&quot;font-size: 12px;&quot;&gt;&lt;b&gt;NLU服务&lt;/b&gt;&lt;/span&gt;" style="rounded=1;whiteSpace=wrap;html=1;shadow=0;labelBackgroundColor=none;strokeWidth=1;fontFamily=Verdana;fontSize=8;align=center;fillColor=#ffe6cc;strokeColor=#d79b00;" parent="77e6c97f196da883-4" vertex="1">
          <mxGeometry x="130" y="95" width="80" height="50" as="geometry" />
        </mxCell>
        <mxCell id="G_6xMhnmnGoEigzbTef8-23" value="&lt;span style=&quot;font-size: 12px;&quot;&gt;&lt;b&gt;Redis记录&lt;/b&gt;&lt;/span&gt;" style="rounded=1;whiteSpace=wrap;html=1;shadow=0;labelBackgroundColor=none;strokeWidth=1;fontFamily=Verdana;fontSize=8;align=center;fillColor=#ffe6cc;strokeColor=#d79b00;" parent="77e6c97f196da883-4" vertex="1">
          <mxGeometry x="70" y="190" width="80" height="50" as="geometry" />
        </mxCell>
        <mxCell id="G_6xMhnmnGoEigzbTef8-30" value="&lt;span style=&quot;font-size: 12px;&quot;&gt;&lt;b&gt;图片处理&lt;br&gt;（URL、轨迹Trace）&lt;/b&gt;&lt;/span&gt;" style="rounded=1;whiteSpace=wrap;html=1;shadow=0;labelBackgroundColor=none;strokeWidth=1;fontFamily=Verdana;fontSize=8;align=center;fillColor=#ffe6cc;strokeColor=#d79b00;" parent="77e6c97f196da883-4" vertex="1">
          <mxGeometry x="70" y="305" width="80" height="50" as="geometry" />
        </mxCell>
        <mxCell id="G_6xMhnmnGoEigzbTef8-32" value="" style="endArrow=none;dashed=1;html=1;rounded=0;entryX=0.5;entryY=1;entryDx=0;entryDy=0;" parent="77e6c97f196da883-4" target="G_6xMhnmnGoEigzbTef8-30" edge="1">
          <mxGeometry width="50" height="50" relative="1" as="geometry">
            <mxPoint x="-210" y="400" as="sourcePoint" />
            <mxPoint x="120" y="360" as="targetPoint" />
            <Array as="points">
              <mxPoint x="110" y="400" />
            </Array>
          </mxGeometry>
        </mxCell>
        <mxCell id="G_6xMhnmnGoEigzbTef8-134" style="edgeStyle=orthogonalEdgeStyle;rounded=0;orthogonalLoop=1;jettySize=auto;html=1;" parent="77e6c97f196da883-4" source="G_6xMhnmnGoEigzbTef8-33" edge="1">
          <mxGeometry relative="1" as="geometry">
            <mxPoint x="410" y="465" as="targetPoint" />
          </mxGeometry>
        </mxCell>
        <mxCell id="G_6xMhnmnGoEigzbTef8-33" value="&lt;span style=&quot;font-size: 12px;&quot;&gt;&lt;b&gt;圈圈学接口逻辑&lt;/b&gt;&lt;/span&gt;" style="rounded=1;whiteSpace=wrap;html=1;shadow=0;labelBackgroundColor=none;strokeWidth=1;fontFamily=Verdana;fontSize=8;align=center;fillColor=#ffe6cc;strokeColor=#d79b00;" parent="77e6c97f196da883-4" vertex="1">
          <mxGeometry x="70" y="440" width="100" height="50" as="geometry" />
        </mxCell>
        <mxCell id="G_6xMhnmnGoEigzbTef8-57" value="&lt;span style=&quot;font-size: 12px;&quot;&gt;&lt;b&gt;万物识接口逻辑&lt;/b&gt;&lt;/span&gt;" style="rounded=1;whiteSpace=wrap;html=1;shadow=0;labelBackgroundColor=none;strokeWidth=1;fontFamily=Verdana;fontSize=8;align=center;fillColor=#ffe6cc;strokeColor=#d79b00;" parent="77e6c97f196da883-4" vertex="1">
          <mxGeometry x="70" y="510" width="100" height="50" as="geometry" />
        </mxCell>
        <mxCell id="G_6xMhnmnGoEigzbTef8-68" value="&lt;span style=&quot;font-size: 12px;&quot;&gt;&lt;b&gt;图片处理&lt;br&gt;（URL、指尖位置）&lt;/b&gt;&lt;/span&gt;" style="rounded=1;whiteSpace=wrap;html=1;shadow=0;labelBackgroundColor=none;strokeWidth=1;fontFamily=Verdana;fontSize=8;align=center;fillColor=#ffe6cc;strokeColor=#d79b00;" parent="77e6c97f196da883-4" vertex="1">
          <mxGeometry x="70" y="650" width="90" height="60" as="geometry" />
        </mxCell>
        <mxCell id="G_6xMhnmnGoEigzbTef8-72" value="" style="curved=1;endArrow=classic;html=1;rounded=0;entryX=0.5;entryY=1;entryDx=0;entryDy=0;" parent="77e6c97f196da883-4" target="G_6xMhnmnGoEigzbTef8-23" edge="1">
          <mxGeometry width="50" height="50" relative="1" as="geometry">
            <mxPoint x="110" y="305" as="sourcePoint" />
            <mxPoint x="120" y="255" as="targetPoint" />
            <Array as="points">
              <mxPoint x="120" y="305" />
              <mxPoint x="70" y="255" />
            </Array>
          </mxGeometry>
        </mxCell>
        <mxCell id="G_6xMhnmnGoEigzbTef8-73" value="" style="curved=1;endArrow=classic;html=1;rounded=0;exitX=0.5;exitY=0;exitDx=0;exitDy=0;" parent="77e6c97f196da883-4" source="G_6xMhnmnGoEigzbTef8-68" edge="1">
          <mxGeometry width="50" height="50" relative="1" as="geometry">
            <mxPoint x="120" y="315" as="sourcePoint" />
            <mxPoint x="110" y="240" as="targetPoint" />
            <Array as="points">
              <mxPoint x="200" y="580" />
              <mxPoint x="190" y="470" />
              <mxPoint x="190" y="310" />
              <mxPoint x="80" y="265" />
            </Array>
          </mxGeometry>
        </mxCell>
        <mxCell id="G_6xMhnmnGoEigzbTef8-5" value="算法" style="swimlane;html=1;startSize=20;fillColor=#fff2cc;strokeColor=#d6b656;" parent="77e6c97f196da883-1" vertex="1">
          <mxGeometry x="650" y="20" width="160" height="770" as="geometry" />
        </mxCell>
        <mxCell id="G_6xMhnmnGoEigzbTef8-9" value="&lt;h5&gt;&lt;span style=&quot;font-size: 12px;&quot;&gt;屏下图片理解&lt;/span&gt;&lt;/h5&gt;" style="rounded=1;whiteSpace=wrap;html=1;shadow=0;labelBackgroundColor=none;strokeWidth=1;fontFamily=Verdana;fontSize=8;align=center;fillColor=#e1d5e7;strokeColor=#9673a6;" parent="G_6xMhnmnGoEigzbTef8-5" vertex="1">
          <mxGeometry x="30" y="650" width="100" height="60" as="geometry" />
        </mxCell>
        <mxCell id="G_6xMhnmnGoEigzbTef8-74" value="&lt;h5&gt;&lt;span style=&quot;font-size: 12px;&quot;&gt;屏上图片理解&lt;/span&gt;&lt;/h5&gt;" style="rounded=1;whiteSpace=wrap;html=1;shadow=0;labelBackgroundColor=none;strokeWidth=1;fontFamily=Verdana;fontSize=8;align=center;fillColor=#e1d5e7;strokeColor=#9673a6;" parent="G_6xMhnmnGoEigzbTef8-5" vertex="1">
          <mxGeometry x="35" y="300" width="100" height="60" as="geometry" />
        </mxCell>
        <mxCell id="G_6xMhnmnGoEigzbTef8-75" value="&lt;span style=&quot;font-size: 12px;&quot;&gt;&lt;b&gt;意图识别&lt;br&gt;（多模/非多模&lt;/b&gt;&lt;/span&gt;&lt;b style=&quot;font-size: 12px; background-color: transparent; color: light-dark(rgb(0, 0, 0), rgb(255, 255, 255));&quot;&gt;）&lt;/b&gt;" style="rounded=1;whiteSpace=wrap;html=1;shadow=0;labelBackgroundColor=none;strokeWidth=1;fontFamily=Verdana;fontSize=8;align=center;fillColor=#e1d5e7;strokeColor=#9673a6;" parent="G_6xMhnmnGoEigzbTef8-5" vertex="1">
          <mxGeometry x="35" y="90" width="90" height="60" as="geometry" />
        </mxCell>
        <mxCell id="77e6c97f196da883-6" value="结果/卡片" style="swimlane;html=1;startSize=20;fillColor=#fff2cc;strokeColor=#d6b656;" parent="77e6c97f196da883-1" vertex="1">
          <mxGeometry x="810" y="20" width="160" height="770" as="geometry" />
        </mxCell>
        <mxCell id="G_6xMhnmnGoEigzbTef8-16" value="" style="edgeStyle=orthogonalEdgeStyle;rounded=0;orthogonalLoop=1;jettySize=auto;html=1;" parent="77e6c97f196da883-6" edge="1">
          <mxGeometry relative="1" as="geometry">
            <mxPoint x="80" y="460" as="targetPoint" />
          </mxGeometry>
        </mxCell>
        <mxCell id="77e6c97f196da883-37" style="edgeStyle=orthogonalEdgeStyle;rounded=1;html=1;labelBackgroundColor=none;startArrow=none;startFill=0;startSize=5;endArrow=classicThin;endFill=1;endSize=5;jettySize=auto;orthogonalLoop=1;strokeWidth=1;fontFamily=Verdana;fontSize=8" parent="77e6c97f196da883-6" edge="1">
          <mxGeometry relative="1" as="geometry">
            <mxPoint x="80" y="460" as="sourcePoint" />
          </mxGeometry>
        </mxCell>
        <mxCell id="77e6c97f196da883-38" style="edgeStyle=orthogonalEdgeStyle;rounded=1;html=1;labelBackgroundColor=none;startArrow=none;startFill=0;startSize=5;endArrow=classicThin;endFill=1;endSize=5;jettySize=auto;orthogonalLoop=1;strokeWidth=1;fontFamily=Verdana;fontSize=8" parent="77e6c97f196da883-6" edge="1">
          <mxGeometry relative="1" as="geometry">
            <mxPoint x="80" y="540" as="sourcePoint" />
          </mxGeometry>
        </mxCell>
        <mxCell id="G_6xMhnmnGoEigzbTef8-76" value="&lt;span style=&quot;font-size: 12px;&quot;&gt;&lt;b&gt;语音意图卡片&lt;/b&gt;&lt;/span&gt;" style="rounded=1;whiteSpace=wrap;html=1;shadow=0;labelBackgroundColor=none;strokeWidth=1;fontFamily=Verdana;fontSize=8;align=center;fillColor=#d5e8d4;strokeColor=#82b366;" parent="77e6c97f196da883-6" vertex="1">
          <mxGeometry x="35" y="90" width="90" height="60" as="geometry" />
        </mxCell>
        <mxCell id="G_6xMhnmnGoEigzbTef8-77" value="&lt;span style=&quot;font-size: 12px;&quot;&gt;&lt;b&gt;圈圈学卡片&lt;/b&gt;&lt;/span&gt;" style="rounded=1;whiteSpace=wrap;html=1;shadow=0;labelBackgroundColor=none;strokeWidth=1;fontFamily=Verdana;fontSize=8;align=center;" parent="77e6c97f196da883-6" vertex="1">
          <mxGeometry x="35" y="430" width="90" height="60" as="geometry" />
        </mxCell>
        <mxCell id="G_6xMhnmnGoEigzbTef8-120" value="&lt;span style=&quot;font-size: 12px;&quot;&gt;&lt;b&gt;识万物卡片&lt;/b&gt;&lt;/span&gt;" style="rounded=1;whiteSpace=wrap;html=1;shadow=0;labelBackgroundColor=none;strokeWidth=1;fontFamily=Verdana;fontSize=8;align=center;" parent="77e6c97f196da883-6" vertex="1">
          <mxGeometry x="35" y="510" width="90" height="60" as="geometry" />
        </mxCell>
        <mxCell id="G_6xMhnmnGoEigzbTef8-123" style="edgeStyle=orthogonalEdgeStyle;rounded=0;orthogonalLoop=1;jettySize=auto;html=1;entryX=0;entryY=0.5;entryDx=0;entryDy=0;" parent="77e6c97f196da883-1" source="G_6xMhnmnGoEigzbTef8-30" target="G_6xMhnmnGoEigzbTef8-74" edge="1">
          <mxGeometry relative="1" as="geometry" />
        </mxCell>
        <mxCell id="G_6xMhnmnGoEigzbTef8-124" style="edgeStyle=orthogonalEdgeStyle;rounded=0;orthogonalLoop=1;jettySize=auto;html=1;entryX=0;entryY=0.5;entryDx=0;entryDy=0;" parent="77e6c97f196da883-1" source="G_6xMhnmnGoEigzbTef8-68" target="G_6xMhnmnGoEigzbTef8-9" edge="1">
          <mxGeometry relative="1" as="geometry" />
        </mxCell>
        <mxCell id="G_6xMhnmnGoEigzbTef8-127" style="edgeStyle=orthogonalEdgeStyle;rounded=0;orthogonalLoop=1;jettySize=auto;html=1;exitX=0;exitY=0.75;exitDx=0;exitDy=0;entryX=1;entryY=0.75;entryDx=0;entryDy=0;" parent="77e6c97f196da883-1" source="G_6xMhnmnGoEigzbTef8-74" target="G_6xMhnmnGoEigzbTef8-30" edge="1">
          <mxGeometry relative="1" as="geometry">
            <Array as="points">
              <mxPoint x="685" y="363" />
              <mxPoint x="633" y="363" />
            </Array>
          </mxGeometry>
        </mxCell>
        <mxCell id="G_6xMhnmnGoEigzbTef8-129" style="edgeStyle=orthogonalEdgeStyle;rounded=0;orthogonalLoop=1;jettySize=auto;html=1;exitX=0;exitY=0.75;exitDx=0;exitDy=0;entryX=1;entryY=0.75;entryDx=0;entryDy=0;" parent="77e6c97f196da883-1" source="G_6xMhnmnGoEigzbTef8-9" target="G_6xMhnmnGoEigzbTef8-68" edge="1">
          <mxGeometry relative="1" as="geometry" />
        </mxCell>
        <mxCell id="G_6xMhnmnGoEigzbTef8-130" style="edgeStyle=orthogonalEdgeStyle;rounded=0;orthogonalLoop=1;jettySize=auto;html=1;entryX=0;entryY=0.5;entryDx=0;entryDy=0;" parent="77e6c97f196da883-1" source="G_6xMhnmnGoEigzbTef8-22" target="G_6xMhnmnGoEigzbTef8-75" edge="1">
          <mxGeometry relative="1" as="geometry" />
        </mxCell>
        <mxCell id="G_6xMhnmnGoEigzbTef8-132" style="edgeStyle=orthogonalEdgeStyle;rounded=0;orthogonalLoop=1;jettySize=auto;html=1;entryX=0.5;entryY=1;entryDx=0;entryDy=0;" parent="77e6c97f196da883-1" source="G_6xMhnmnGoEigzbTef8-23" target="G_6xMhnmnGoEigzbTef8-75" edge="1">
          <mxGeometry relative="1" as="geometry" />
        </mxCell>
        <mxCell id="G_6xMhnmnGoEigzbTef8-133" style="edgeStyle=orthogonalEdgeStyle;rounded=0;orthogonalLoop=1;jettySize=auto;html=1;entryX=0;entryY=0.5;entryDx=0;entryDy=0;" parent="77e6c97f196da883-1" source="G_6xMhnmnGoEigzbTef8-75" target="G_6xMhnmnGoEigzbTef8-76" edge="1">
          <mxGeometry relative="1" as="geometry" />
        </mxCell>
        <mxCell id="G_6xMhnmnGoEigzbTef8-135" style="edgeStyle=orthogonalEdgeStyle;rounded=0;orthogonalLoop=1;jettySize=auto;html=1;entryX=-0.019;entryY=0.417;entryDx=0;entryDy=0;entryPerimeter=0;" parent="77e6c97f196da883-1" source="G_6xMhnmnGoEigzbTef8-57" target="G_6xMhnmnGoEigzbTef8-120" edge="1">
          <mxGeometry relative="1" as="geometry" />
        </mxCell>
        <mxCell id="G_6xMhnmnGoEigzbTef8-27" value="是" style="text;html=1;align=center;verticalAlign=middle;resizable=0;points=[];autosize=1;strokeColor=none;fillColor=none;" parent="1" vertex="1">
          <mxGeometry x="780" y="578" width="40" height="30" as="geometry" />
        </mxCell>
      </root>
    </mxGraphModel>
  </diagram>
</mxfile>
